<svg xmlns="http://www.w3.org/2000/svg" width="1024" height="1024" viewBox="0 0 1024 1024">
  <defs>
    <linearGradient id="bg" x1="0%" y1="0%" x2="100%" y2="100%">
      <stop offset="0%" stop-color="#f6efe5" />
      <stop offset="100%" stop-color="#d9c0a1" />
    </linearGradient>
    <linearGradient id="plate" x1="0%" y1="0%" x2="100%" y2="100%">
      <stop offset="0%" stop-color="#8c5d35" />
      <stop offset="100%" stop-color="#5d3b20" />
    </linearGradient>
  </defs>
  <rect x="64" y="64" width="896" height="896" rx="220" fill="url(#bg)" />
  <rect x="256" y="180" width="420" height="560" rx="36" fill="#fffaf4" stroke="#b99772" stroke-width="18" />
  <rect x="318" y="260" width="292" height="20" rx="10" fill="#d6c1ac" />
  <rect x="318" y="324" width="240" height="20" rx="10" fill="#e2d1bf" />
  <rect x="318" y="388" width="260" height="20" rx="10" fill="#e2d1bf" />
  <rect x="318" y="452" width="220" height="20" rx="10" fill="#e2d1bf" />
  <rect x="318" y="516" width="182" height="20" rx="10" fill="#e2d1bf" />
  <g transform="translate(558 468) rotate(-14)">
    <rect x="0" y="0" width="280" height="280" rx="50" fill="url(#plate)" />
    <path d="M74 96h132l-54 92h84L106 256l48-84H74z" fill="#fff8ee" opacity="0.94" />
  </g>
</svg>
